# xmcd CD database file
#
# Track frame offsets:
#	150
#	16697
#	30632
#	45823
#	65127
#	80479
#	105584
#	119923
#	140433
#	159735
#	178845
#	196912
#	224423
#	244904
#	263790
#	286598
#	301570
#
# Disc length: 4299 seconds
#
# Revision: 0
# Processed by: cddbd v1.5.1PL0 Copyright (c) Steve Scherf et al.
# Submitted via: CDex 1.51
#
DISCID=e910c911
DTITLE=Caribe MIX - Fiesta Hotels
DYEAR=2002
DGENRE=Merengue
TTITLE0=Chayanne - Torero
TTITLE1=Amarfi - Bacalao
TTITLE2=El Simbolo - 1,2,3
TTITLE3=Christian Castro - Azul
TTITLE4=La Orta Colita - La Colita
TTITLE5=Mamajuana - Gozando hasta la ma ana
TTITLE6=To o Rosario - Culiquitaka
TTITLE7=To o Rosario - La Chuleta
TTITLE8=Malafe - La Vaca
TTITLE9=Aventura - Obsecion
TTITLE10=Dulce Maria - Gemidos de Amor
TTITLE11=Aventura - Amor de Madre
TTITLE12=Aventura - El Aborto
TTITLE13=Frank Reyes - Nada de Nada
TTITLE14=Raulin Rodrigez - Derroche de Sexo
TTITLE15=Mariel - La Malanga
TTITLE16=Celia Cruz - La Vida es un Carnaval
EXTD=YEAR: 2002
EXTT0=
EXTT1=
EXTT2=
EXTT3=
EXTT4=
EXTT5=
EXTT6=
EXTT7=
EXTT8=
EXTT9=
EXTT10=
EXTT11=
EXTT12=
EXTT13=
EXTT14=
EXTT15=
EXTT16=
PLAYORDER=
